<?xml version="1.0" encoding="utf-8"?>
<!-- Uploaded to: SVG Repo, www.svgrepo.com, Generator: SVG Repo Mixer Tools -->
<svg xmlns="http://www.w3.org/2000/svg" xmlns:xlink="http://www.w3.org/1999/xlink" version="1.1" id="Capa_1"  viewBox="-275 367 60 60" xml:space="preserve" width="512" height="512">
<style type="text/css">
	.st0{fill:#FFFFFF;fill-opacity:0;}
	.st1{fill:#80D6FA;}
	.st2{fill:#AAB1BA;}
	.st3{fill:#FF7474;}
	.st4{fill:#51565F;}
</style>
<title>location-map</title>
<desc>Created with Sketch.</desc>
<g id="Travel">
	
	<g id="location-map">
		<g id="fill" transform="translate(1.000000, 1.000000)">
			<path id="Fill-3" class="st1" d="M-223,413c3.3,0,6,2.7,6,6s-2.7,6-6,6h-46c-3.3,0-6-2.7-6-6s2.7-6,6-6h20.4l0,0l2.6,4l2.6-4     H-223z"/>
			<path id="Combined-Shape" class="st2" d="M-217,409v10c0-3.3-2.7-6-6-6v-10C-219.7,403-217,405.7-217,409z M-269,403v10     c-3.3,0-6,2.7-6,6v-10C-275,405.7-272.3,403-269,403z"/>
			<path id="Fill-1" class="st3" d="M-239,384c0-3.9-3.1-7-7-7s-7,3.1-7,7s3.1,7,7,7S-239,387.9-239,384L-239,384z M-243.4,413     l-2.6,4l-2.6-4l-10.4-16c0,0-4-6.4-4-13c0-9.4,7.6-17,17-17s17,7.6,17,17c0,7.5-4,13-4,13L-243.4,413z"/>
		</g>
		<path class="st4" d="M-234,426.5C-234,426.5-234,426.5-234,426.5h-28c0,0,0,0,0,0h-6c-3.6,0-6.5-2.9-6.5-6.5c0-3.4,2.6-6.2,6-6.5    l0-9c-2.8,0.3-5,2.6-5,5.5v3c0,0.3-0.2,0.5-0.5,0.5s-0.5-0.2-0.5-0.5v-3c0-3.6,2.9-6.5,6.5-6.5c0.3,0,0.5,0.2,0.5,0.5l0,10    c0,0.1-0.1,0.3-0.1,0.4s-0.2,0.1-0.4,0.1c-3,0-5.5,2.5-5.5,5.5s2.5,5.5,5.5,5.5h5.7l1.6-3.2l-9.5-3.8c-0.3-0.1-0.4-0.4-0.3-0.6    s0.4-0.4,0.6-0.3l9.6,3.8l3.4-6.9h-7.2c-0.3,0-0.5-0.2-0.5-0.5s0.2-0.5,0.5-0.5h8c0,0,0,0,0,0h4c0.3,0,0.5,0.2,0.5,0.5    s-0.2,0.5-0.5,0.5h-3.7l-3.5,7h23.2l-2.4-7.3c-0.1-0.2,0-0.3,0.1-0.5c0.1-0.1,0.2-0.2,0.4-0.2h12c0.3,0,0.5,0.2,0.5,0.5    s-0.2,0.5-0.5,0.5h-11.3l2.3,7h6.7l5.8-7.7V404c0-0.3,0.2-0.5,0.5-0.5c3.6,0,6.5,2.9,6.5,6.5v3c0,0.3-0.2,0.5-0.5,0.5    s-0.5-0.2-0.5-0.5v-3c0-2.9-2.2-5.2-5-5.5v9c3.4,0.3,6,3.1,6,6.5c0,3.6-2.9,6.5-6.5,6.5H-234C-234,426.5-234,426.5-234,426.5z     M-233.6,425.5h11.6c3,0,5.5-2.5,5.5-5.5c0-3-2.3-5.4-5.3-5.5l-5.2,7h7c0.3,0,0.5,0.2,0.5,0.5s-0.2,0.5-0.5,0.5h-8c0,0,0,0,0,0    h-6.6L-233.6,425.5z M-261.2,425.5h26.5l-1-3h-24L-261.2,425.5z M-245,418.5c-0.2,0-0.3-0.1-0.4-0.2l-13-20    c-0.2-0.3-4.1-6.6-4.1-13.3c0-9.6,7.9-17.5,17.5-17.5s17.5,7.9,17.5,17.5c0,7.5-3.8,12.9-4.1,13.3l-13,20    C-244.7,418.4-244.8,418.5-245,418.5z M-245,368.5c-9.1,0-16.5,7.4-16.5,16.5c0,6.3,3.9,12.7,3.9,12.7l12.6,19.3l12.6-19.4    c0,0,0,0,0,0c0-0.1,3.9-5.5,3.9-12.7C-228.5,375.9-235.9,368.5-245,368.5z M-245,392.5c-4.1,0-7.5-3.4-7.5-7.5s3.4-7.5,7.5-7.5    s7.5,3.4,7.5,7.5S-240.9,392.5-245,392.5z M-245,378.5c-3.6,0-6.5,2.9-6.5,6.5s2.9,6.5,6.5,6.5s6.5-2.9,6.5-6.5    S-241.4,378.5-245,378.5z"/>
	</g>
</g>
</svg>